<svg width="98" height="254" viewBox="0 0 98 254" fill="none" xmlns="http://www.w3.org/2000/svg">
<path d="M9.36295 14.6367C16.3898 6.12029 34.1575 -6.97369 49.0142 8.78167C63.8709 24.537 43.8277 54.0251 31.9491 66.7998C26.0934 70.3483 13.8802 76.3807 11.8725 72.1225C9.36294 66.7998 7.8572 55.622 28.4357 46.041C41.6528 40.3634 70.195 34.3309 78.6272 55.622C82.4752 64.8481 83.1444 86.281 55.0372 98.204L19.9031 113.64M19.9031 113.64C6.51876 114.176 -12.7213 107.795 17.3936 77.9775C26.93 73.3645 50.0181 64.0319 66.0793 63.6061C75.2811 65.5578 92.982 75.2097 90.1712 98.204C90.5059 102.817 84.2487 114.279 56.543 123.221C50.1854 124.64 35.9645 127.586 29.9415 128.011L8.35917 131.205L19.9031 113.64ZM19.9031 113.64C28.6856 111.156 49.4133 106.933 62.064 109.914C77.8775 113.64 84.1483 110.446 96.6961 131.205C98.8711 141.851 97.2984 163.674 73.6081 165.803C49.9177 167.932 34.626 163.851 29.9415 161.545V141.851M29.9415 141.851C47.1739 143.447 84.1483 142.276 94.1866 124.818C99.0384 112.398 99.4065 87.0262 62.064 84.8971C53.0296 85.252 33.756 86.3875 28.9377 88.0908L29.9415 125.882C47.5085 127.479 84.4494 135.038 91.677 152.496C95.525 162.609 96.7965 183.9 71.0985 188.159C61.5621 188.513 39.9798 187.201 29.9415 179.11M29.9415 141.851V179.11M29.9415 141.851C40.8163 144.512 64.7744 151.857 73.6081 159.948C84.3156 168.819 100.009 190.82 77.1215 207.853C69.9273 210.514 50.821 212.643 31.9491 199.869M29.9415 179.11L31.9491 199.869M29.9415 179.11C41.9874 187.626 66.5813 208.279 68.5889 222.757C69.4255 231.628 67.1836 250.116 51.5238 253.096C47.5085 253.806 37.5706 253.735 29.9415 247.774L31.9491 199.869" stroke="#84829A"/>
</svg>
