<svg width="89" height="89" viewBox="0 0 89 89" fill="none" xmlns="http://www.w3.org/2000/svg">
<path d="M31.4237 60.7079C28.4885 60.7079 26.0119 60.2645 23.9939 59.3778C21.9759 58.4911 20.4624 57.2834 19.4535 55.7547C18.475 54.2259 17.9858 52.5137 17.9858 50.618C17.9858 48.9975 18.3833 47.5452 19.1783 46.261C20.0038 44.9463 21.0892 43.922 22.4345 43.1882C21.3644 42.485 20.5389 41.5983 19.9579 40.5282C19.4076 39.458 19.1324 38.235 19.1324 36.8591C19.1324 35.1163 19.5758 33.557 20.4624 32.1811C21.3797 30.7746 22.7556 29.6739 24.5901 28.879C26.4246 28.084 28.7025 27.6865 31.4237 27.6865C35.4291 27.6865 38.456 28.5273 40.5046 30.209C42.5837 31.8906 43.6232 34.0921 43.6232 36.8133C43.6232 39.5956 42.5531 41.7206 40.4128 43.1882C41.7887 43.8609 42.8741 44.8546 43.6691 46.1693C44.4946 47.484 44.9074 48.9822 44.9074 50.6639C44.9074 52.5595 44.4029 54.2718 43.3939 55.8005C42.3849 57.2987 40.8562 58.4911 38.8076 59.3778C36.7897 60.2645 34.3283 60.7079 31.4237 60.7079ZM31.4237 40.8951C32.769 40.8645 33.8697 40.5129 34.7258 39.8402C35.5819 39.1676 36.01 38.2962 36.01 37.226C36.01 36.1253 35.5819 35.2386 34.7258 34.566C33.8697 33.8933 32.769 33.557 31.4237 33.557C30.0784 33.557 28.9777 33.8933 28.1216 34.566C27.2654 35.2386 26.8374 36.1253 26.8374 37.226C26.8374 38.3267 27.2654 39.2134 28.1216 39.8861C28.9777 40.5587 30.0784 40.8951 31.4237 40.8951ZM31.4237 54.8374C32.9219 54.8374 34.1602 54.4552 35.1386 53.6908C36.117 52.9264 36.6062 51.9022 36.6062 50.618C36.6062 49.3338 36.117 48.3249 35.1386 47.591C34.1602 46.8267 32.9219 46.4445 31.4237 46.4445C29.9255 46.4445 28.6719 46.8267 27.6629 47.591C26.6845 48.3249 26.1953 49.3338 26.1953 50.618C26.1953 51.9022 26.6845 52.9264 27.6629 53.6908C28.6719 54.4552 29.9255 54.8374 31.4237 54.8374Z" fill="#E6A317"/>
<path d="M53.4268 60.2492C53.1516 60.2492 52.9223 60.1575 52.7389 59.974C52.5554 59.76 52.4637 59.5154 52.4637 59.2402C52.4637 59.0874 52.4943 58.9498 52.5554 58.8275L63.1497 35.0705H49.4367C49.1004 35.0705 48.8099 34.9634 48.5653 34.7494C48.3513 34.5048 48.2443 34.2144 48.2443 33.878V29.2917C48.2443 28.9554 48.3513 28.6802 48.5653 28.4662C48.8099 28.2522 49.1004 28.1452 49.4367 28.1452H70.8547C71.2216 28.1452 71.5121 28.2522 71.7261 28.4662C71.9401 28.6802 72.0472 28.9554 72.0472 29.2917V33.3735C72.0472 34.0156 71.879 34.7036 71.5427 35.4374L60.9483 59.1485C60.612 59.8823 60.0769 60.2492 59.3431 60.2492H53.4268Z" fill="#E6A317"/>
<path d="M49.7259 2.99763C49.9101 1.53464 48.8734 0.190877 47.402 0.0946933C38.4179 -0.492585 29.443 1.65901 21.678 6.2978C13.1472 11.3941 6.56759 19.1992 2.98779 28.4692C-0.592017 37.7393 -0.966017 47.9408 1.92538 57.448C4.81678 66.9553 10.8072 75.2212 18.942 80.9285C27.0768 86.6358 36.8878 89.4561 46.8116 88.9399C56.7354 88.4237 66.2009 84.6008 73.6996 78.0802C81.1984 71.5597 86.2988 62.7169 88.1882 52.961C89.908 44.0809 88.8773 34.9094 85.2681 26.6613C84.6769 25.3104 83.0606 24.7928 81.7476 25.4638C80.4346 26.1349 79.9233 27.7403 80.5033 29.096C83.5763 36.2779 84.4389 44.2366 82.9459 51.9457C81.2832 60.531 76.7947 68.3127 70.1958 74.0508C63.5969 79.7888 55.2672 83.1531 46.5342 83.6073C37.8012 84.0616 29.1675 81.5797 22.0088 76.5573C14.8502 71.5348 9.57859 64.2608 7.03414 55.8943C4.4897 47.5279 4.81883 38.5505 7.96906 30.3929C11.1193 22.2352 16.9094 15.3667 24.4166 10.8819C31.1576 6.85479 38.9349 4.95778 46.7339 5.40354C48.2061 5.48768 49.5417 4.46062 49.7259 2.99763Z" fill="#E6A317"/>
</svg>
