<svg width="18" height="28" viewBox="0 0 18 28" fill="none" xmlns="http://www.w3.org/2000/svg">
<path d="M14.776 0.000137329C14.4131 -0.000879288 14.0546 0.0650597 13.7267 0.193106C13.3988 0.321152 13.11 0.508051 12.8814 0.74007L1.14925 12.7389C0.791987 13.0968 0.59668 13.5456 0.59668 14.0088C0.59668 14.472 0.791987 14.9209 1.14925 15.2787L13.2943 27.2776C13.7066 27.686 14.2991 27.9428 14.9413 27.9915C15.5836 28.0403 16.2232 27.877 16.7192 27.5375C17.2152 27.1981 17.5272 26.7103 17.5864 26.1815C17.6456 25.6527 17.4473 25.1262 17.035 24.7178L6.1773 13.9988L16.6706 3.27983C16.9676 2.98628 17.1563 2.62884 17.2143 2.24978C17.2723 1.87071 17.1972 1.4859 16.9979 1.14088C16.7986 0.795858 16.4834 0.505062 16.0896 0.3029C15.6959 0.100739 15.24 -0.00432587 14.776 0.000137329Z" fill="#1385CC"/>
</svg>
