<svg width="13" height="13" viewBox="0 0 13 13" fill="none" xmlns="http://www.w3.org/2000/svg">
<path fill-rule="evenodd" clip-rule="evenodd" d="M13 6.5C13 10.0899 10.0899 13 6.5 13C2.91015 13 0 10.0899 0 6.5C0 2.91015 2.91015 0 6.5 0C10.0899 0 13 2.91015 13 6.5ZM10.5752 4.74545C10.9288 4.32117 10.8715 3.69061 10.4472 3.33704C10.0229 2.98348 9.39236 3.0408 9.0388 3.46508L5.74859 7.41332L4.12816 5.79289C3.73764 5.40237 3.10447 5.40237 2.71395 5.79289C2.32342 6.18342 2.32342 6.81658 2.71395 7.20711L5.10868 9.60184C5.30735 9.80051 5.58043 9.90644 5.8611 9.89371C6.14178 9.88098 6.40414 9.75076 6.58401 9.53492L10.5752 4.74545Z" fill="#009DFF"/>
</svg>
