<svg width="20" height="16" viewBox="0 0 20 16" fill="none" xmlns="http://www.w3.org/2000/svg">
<path d="M6.06978 12.198L16.9932 1.09064C17.001 1.0824 17.0091 1.07427 17.0172 1.06627L6.06978 12.198ZM6.06978 12.198L2.713 8.78472L2.71304 8.78468L2.70807 8.7798C2.27508 8.35458 1.58262 8.36708 1.16485 8.80694C0.760674 9.23246 0.760674 9.90449 1.16485 10.33L1.16481 10.3301L1.16968 10.335L5.29812 14.533L5.29816 14.533C5.72358 14.9655 6.416 14.9655 6.84141 14.533L6.84143 14.533L18.5365 2.64092C18.963 2.21909 18.9737 1.52859 18.5604 1.09342C18.1427 0.653596 17.4503 0.641063 17.0173 1.06616L6.06978 12.198Z" fill="#1385CC" stroke="#1385CC" stroke-width="0.8"/>
</svg>
