<svg width="19" height="13" viewBox="0 0 19 13" fill="none" xmlns="http://www.w3.org/2000/svg">
<path fill-rule="evenodd" clip-rule="evenodd" d="M3.35607 2.51587C3.52118 1.89945 3.90982 1.35122 4.45961 0.959177C5.0094 0.567131 5.68846 0.354004 6.3878 0.354004C7.08713 0.354004 7.76619 0.567131 8.31599 0.959177C8.86578 1.35122 9.25441 1.89945 9.41952 2.51587H18.2832C18.4732 2.51587 18.6555 2.58435 18.7899 2.70625C18.9243 2.82815 18.9998 2.99348 18.9998 3.16587C18.9998 3.33826 18.9243 3.50359 18.7899 3.62549C18.6555 3.74739 18.4732 3.81587 18.2832 3.81587H9.41952C9.25441 4.43229 8.86578 4.98052 8.31599 5.37257C7.76619 5.76461 7.08713 5.97774 6.3878 5.97774C5.68846 5.97774 5.0094 5.76461 4.45961 5.37257C3.90982 4.98052 3.52118 4.43229 3.35607 3.81587H1.07401C0.88396 3.81587 0.701693 3.74739 0.567306 3.62549C0.432919 3.50359 0.357422 3.33826 0.357422 3.16587C0.357422 2.99348 0.432919 2.82815 0.567306 2.70625C0.701693 2.58435 0.88396 2.51587 1.07401 2.51587H3.35607V2.51587ZM4.70105 3.17587C4.70105 3.37679 4.74468 3.57575 4.82945 3.76138C4.91422 3.94701 5.03846 4.11567 5.19509 4.25775C5.35172 4.39982 5.53766 4.51252 5.74231 4.58941C5.94695 4.6663 6.16629 4.70587 6.3878 4.70587C6.6093 4.70587 6.82864 4.6663 7.03328 4.58941C7.23793 4.51252 7.42387 4.39982 7.5805 4.25775C7.73713 4.11567 7.86137 3.94701 7.94614 3.76138C8.03091 3.57575 8.07454 3.37679 8.07454 3.17587C8.07454 2.77009 7.89683 2.38093 7.5805 2.094C7.26418 1.80707 6.83515 1.64587 6.3878 1.64587C5.94044 1.64587 5.51142 1.80707 5.19509 2.094C4.87876 2.38093 4.70105 2.77009 4.70105 3.17587V3.17587ZM9.94869 8.86587C10.1082 8.24257 10.4959 7.68671 11.0485 7.28898C11.6011 6.89124 12.286 6.67512 12.9914 6.67587C14.4246 6.68587 15.6704 7.59587 16.0011 8.86587H18.2832C18.4732 8.86587 18.6555 8.93435 18.7899 9.05625C18.9243 9.17815 18.9998 9.34348 18.9998 9.51587C18.9998 9.68826 18.9243 9.85359 18.7899 9.97549C18.6555 10.0974 18.4732 10.1659 18.2832 10.1659H16.0011C15.836 10.7823 15.4474 11.3305 14.8976 11.7226C14.3478 12.1146 13.6687 12.3277 12.9694 12.3277C12.2701 12.3277 11.591 12.1146 11.0412 11.7226C10.4914 11.3305 10.1028 10.7823 9.93767 10.1659H1.07401C0.88396 10.1659 0.701693 10.0974 0.567306 9.97549C0.432919 9.85359 0.357422 9.68826 0.357422 9.51587C0.357422 9.34348 0.432919 9.17815 0.567306 9.05625C0.701693 8.93435 0.88396 8.86587 1.07401 8.86587H9.94869ZM11.3047 9.50587C11.3047 9.91165 11.4824 10.3008 11.7987 10.5877C12.1151 10.8747 12.5441 11.0359 12.9914 11.0359C13.4388 11.0359 13.8678 10.8747 14.1841 10.5877C14.5005 10.3008 14.6782 9.91165 14.6782 9.50587C14.6782 9.10009 14.5005 8.71093 14.1841 8.424C13.8678 8.13707 13.4388 7.97587 12.9914 7.97587C12.5441 7.97587 12.1151 8.13707 11.7987 8.424C11.4824 8.71093 11.3047 9.10009 11.3047 9.50587V9.50587Z" fill="#009DFF"/>
</svg>
