<svg width="88" height="31" viewBox="0 0 88 31" fill="none" xmlns="http://www.w3.org/2000/svg">
<path d="M13.5849 3.204V7.012H5.4649V11.352H11.7369V14.992H5.4649V23H0.676902V3.204H13.5849ZM15.5961 2.98C15.5961 2.252 15.8574 1.65467 16.3801 1.188C16.9028 0.702665 17.5934 0.459998 18.4521 0.459998C19.3108 0.459998 20.0014 0.702665 20.5241 1.188C21.0468 1.65467 21.3081 2.252 21.3081 2.98C21.3081 3.68933 21.0468 4.28667 20.5241 4.772C20.0014 5.23867 19.3108 5.472 18.4521 5.472C17.5934 5.472 16.9028 5.23867 16.3801 4.772C15.8574 4.28667 15.5961 3.68933 15.5961 2.98ZM20.8321 7.376V23H16.0441V7.376H20.8321ZM34.0498 7.208C35.8418 7.208 37.2605 7.80533 38.3058 9C39.3698 10.1947 39.9018 11.8373 39.9018 13.928V23H35.1138V14.488C35.1138 13.4427 34.8338 12.6307 34.2738 12.052C33.7325 11.4547 33.0045 11.156 32.0898 11.156C31.1192 11.156 30.3445 11.464 29.7658 12.08C29.2058 12.696 28.9258 13.5733 28.9258 14.712V23H24.1378V7.376H28.9258V10.232C29.3738 9.29867 30.0365 8.56133 30.9138 8.02C31.8098 7.47867 32.8552 7.208 34.0498 7.208ZM60.8677 13.06C60.8677 15.0013 60.4477 16.728 59.6077 18.24C58.7864 19.7333 57.5917 20.9 56.0237 21.74C54.4744 22.58 52.645 23 50.5357 23H43.0597V3.204H50.5357C52.6637 3.204 54.5024 3.61467 56.0517 4.436C57.601 5.25733 58.7864 6.41467 59.6077 7.908C60.4477 9.40133 60.8677 11.1187 60.8677 13.06ZM50.1157 18.716C51.9824 18.716 53.429 18.2213 54.4557 17.232C55.501 16.2427 56.0237 14.852 56.0237 13.06C56.0237 11.268 55.501 9.87733 54.4557 8.888C53.429 7.89867 51.9824 7.404 50.1157 7.404H47.8477V18.716H50.1157ZM63.1469 2.98C63.1469 2.252 63.4082 1.65467 63.9309 1.188C64.4535 0.702665 65.1442 0.459998 66.0029 0.459998C66.8615 0.459998 67.5522 0.702665 68.0749 1.188C68.5975 1.65467 68.8589 2.252 68.8589 2.98C68.8589 3.68933 68.5975 4.28667 68.0749 4.772C67.5522 5.23867 66.8615 5.472 66.0029 5.472C65.1442 5.472 64.4535 5.23867 63.9309 4.772C63.4082 4.28667 63.1469 3.68933 63.1469 2.98ZM68.3829 7.376V23H63.5949V7.376H68.3829ZM77.6246 7.18C78.8193 7.18 79.846 7.45067 80.7046 7.992C81.5633 8.53333 82.198 9.27067 82.6086 10.204V7.376H87.3686V22.916C87.3686 24.372 87.0886 25.6787 86.5286 26.836C85.9686 28.012 85.11 28.9453 83.9526 29.636C82.7953 30.3267 81.358 30.672 79.6406 30.672C77.2886 30.672 75.4033 30.112 73.9846 28.992C72.5846 27.8907 71.7446 26.388 71.4646 24.484H76.1966C76.346 25.1187 76.682 25.6133 77.2046 25.968C77.746 26.3227 78.446 26.5 79.3046 26.5C80.294 26.5 81.0873 26.2107 81.6846 25.632C82.3006 25.072 82.6086 24.1667 82.6086 22.916V20.172C82.198 21.1053 81.5633 21.8427 80.7046 22.384C79.846 22.9253 78.8193 23.196 77.6246 23.196C76.3366 23.196 75.1793 22.8787 74.1526 22.244C73.1446 21.5907 72.342 20.6573 71.7446 19.444C71.166 18.2307 70.8766 16.812 70.8766 15.188C70.8766 13.5453 71.166 12.1267 71.7446 10.932C72.342 9.71867 73.1446 8.79467 74.1526 8.16C75.1793 7.50667 76.3366 7.18 77.6246 7.18ZM79.1646 11.38C78.138 11.38 77.3073 11.716 76.6726 12.388C76.0566 13.06 75.7486 13.9933 75.7486 15.188C75.7486 16.3827 76.0566 17.316 76.6726 17.988C77.3073 18.66 78.138 18.996 79.1646 18.996C80.1726 18.996 80.994 18.6507 81.6286 17.96C82.282 17.2693 82.6086 16.3453 82.6086 15.188C82.6086 14.012 82.282 13.088 81.6286 12.416C80.994 11.7253 80.1726 11.38 79.1646 11.38Z" fill="white"/>
</svg>
