<svg width="178" height="58" viewBox="0 0 178 58" fill="none" xmlns="http://www.w3.org/2000/svg">
<rect x="0.486328" y="0.0546875" width="177.257" height="57.9091" rx="17.5" fill="#080809"/>
<g clip-path="url(#clip0_215_3450)">
<path d="M47.7126 28.1861L31.0745 44.1876C30.2953 43.6558 29.8327 42.7712 29.8409 41.8287V14.5435C29.8327 13.601 30.2953 12.7164 31.0745 12.1846L47.7126 28.1861Z" fill="#A5A6F6"/>
<path d="M53.5332 22.5958L47.7114 28.1851L31.0732 12.1836C31.1359 12.1351 31.2012 12.0899 31.2688 12.0484C32.1481 11.5161 33.2465 11.4989 34.1421 12.0033L53.5332 22.5958Z" fill="#009DFF"/>
<path d="M60.5892 28.185C60.6 29.2489 60.0212 30.2317 59.0849 30.7392L53.5338 33.7742L47.7119 28.185L53.5338 22.5957L59.0849 25.6307C60.0212 26.1382 60.6 27.121 60.5892 28.185Z" fill="#F0BB1F"/>
<path d="M53.5332 33.7748L34.1421 44.3673C33.2445 44.8639 32.1503 44.8468 31.2688 44.3223C31.2012 44.2807 31.1359 44.2356 31.0732 44.187L47.7115 28.1855L53.5332 33.7748Z" fill="#F15A2B"/>
</g>
<path d="M80.0437 19.7105H75.392V21.5635H77.8702C77.5389 22.4504 76.7305 22.9931 75.498 22.9931C73.6956 22.9931 72.5824 21.8415 72.5824 20.2664C72.5824 18.6383 73.7486 17.4867 75.3125 17.4867C76.3594 17.4867 77.1944 17.9633 77.5787 18.5721L79.3811 17.5397C78.5992 16.2955 77.1016 15.4219 75.3257 15.4219C72.5956 15.4219 70.4619 17.5662 70.4619 20.2531C70.4619 22.9137 72.5559 25.0579 75.4715 25.0579C78.069 25.0579 80.0437 23.3372 80.0437 20.5046V19.7105Z" fill="white"/>
<path d="M82.697 22.8342V21.1929H86.0102V19.181H82.697V17.6456H86.3415V15.6072H80.5765V24.8726H86.4078V22.8342H82.697Z" fill="white"/>
<path d="M93.1703 15.6072H86.2789V17.6456H88.6644V24.8726H90.7848V17.6456H93.1703V15.6072Z" fill="white"/>
<path d="M96.0865 15.6072V24.8726H98.2069V15.6072H96.0865Z" fill="white"/>
<path d="M105.367 15.6072H98.4756V17.6456H100.861V24.8726H102.982V17.6456H105.367V15.6072Z" fill="white"/>
<path d="M112.71 25.0579C115.373 25.0579 117.534 22.9666 117.534 20.2399C117.534 17.5132 115.373 15.4219 112.71 15.4219C110.046 15.4219 107.886 17.5132 107.886 20.2399C107.886 22.9666 110.046 25.0579 112.71 25.0579ZM112.71 22.9931C111.199 22.9931 110.006 21.8945 110.006 20.2399C110.006 18.5854 111.199 17.4867 112.71 17.4867C114.22 17.4867 115.413 18.5854 115.413 20.2399C115.413 21.8945 114.22 22.9931 112.71 22.9931Z" fill="white"/>
<path d="M123.234 15.6072V20.637L119.655 15.6072H118.065V24.8726H120.185V19.8428L123.764 24.8726H125.354V15.6072H123.234Z" fill="white"/>
<path d="M80.0437 35.4485V35.8059C80.0437 36.9618 79.6329 37.9369 78.8112 38.7311C77.9895 39.5165 76.9072 39.9091 75.5643 39.9091C74.1506 39.9091 72.9844 39.4503 72.0655 38.5326C71.1466 37.606 70.6872 36.4721 70.6872 35.1308C70.6872 33.7895 71.1422 32.66 72.0523 31.7423C72.9623 30.8158 74.1153 30.3525 75.5112 30.3525C76.3594 30.3525 77.1369 30.5555 77.8437 30.9614C78.5594 31.3673 79.1116 31.91 79.5003 32.5894L78.8775 32.9601C78.5682 32.3777 78.1088 31.91 77.4992 31.557C76.8984 31.204 76.2357 31.0275 75.5112 31.0275C74.3097 31.0275 73.3201 31.4246 72.5426 32.2188C71.7739 33.0042 71.3896 33.9748 71.3896 35.1308C71.3896 36.2868 71.7784 37.2619 72.5559 38.0561C73.3334 38.8414 74.3362 39.2341 75.5643 39.2341C76.651 39.2341 77.5301 38.9385 78.2016 38.3473C78.873 37.756 79.2485 37.0104 79.3281 36.1103H75.392V35.4485H80.0437Z" fill="white"/>
<path d="M89.4509 38.5193C88.5232 39.4459 87.3923 39.9091 86.0582 39.9091C84.7241 39.9091 83.5932 39.4459 82.6655 38.5193C81.7378 37.584 81.2739 36.4545 81.2739 35.1308C81.2739 33.8072 81.7378 32.6821 82.6655 31.7555C83.5932 30.8202 84.7241 30.3525 86.0582 30.3525C87.3923 30.3525 88.5232 30.8202 89.4509 31.7555C90.3786 32.6821 90.8425 33.8072 90.8425 35.1308C90.8425 36.4545 90.3786 37.584 89.4509 38.5193ZM83.1558 38.0428C83.951 38.837 84.9185 39.2341 86.0582 39.2341C87.198 39.2341 88.161 38.837 88.9473 38.0428C89.7425 37.2398 90.1401 36.2691 90.1401 35.1308C90.1401 33.9925 89.7425 33.0262 88.9473 32.2321C88.161 31.4291 87.198 31.0275 86.0582 31.0275C84.9185 31.0275 83.951 31.4291 83.1558 32.2321C82.3695 33.0262 81.9763 33.9925 81.9763 35.1308C81.9763 36.2691 82.3695 37.2398 83.1558 38.0428Z" fill="white"/>
<path d="M100.271 38.5193C99.3429 39.4459 98.212 39.9091 96.8779 39.9091C95.5438 39.9091 94.4129 39.4459 93.4852 38.5193C92.5575 37.584 92.0936 36.4545 92.0936 35.1308C92.0936 33.8072 92.5575 32.6821 93.4852 31.7555C94.4129 30.8202 95.5438 30.3525 96.8779 30.3525C98.212 30.3525 99.3429 30.8202 100.271 31.7555C101.198 32.6821 101.662 33.8072 101.662 35.1308C101.662 36.4545 101.198 37.584 100.271 38.5193ZM93.9755 38.0428C94.7707 38.837 95.7382 39.2341 96.8779 39.2341C98.0177 39.2341 98.9807 38.837 99.767 38.0428C100.562 37.2398 100.96 36.2691 100.96 35.1308C100.96 33.9925 100.562 33.0262 99.767 32.2321C98.9807 31.4291 98.0177 31.0275 96.8779 31.0275C95.7382 31.0275 94.7707 31.4291 93.9755 32.2321C93.1892 33.0262 92.796 33.9925 92.796 35.1308C92.796 36.2691 93.1892 37.2398 93.9755 38.0428Z" fill="white"/>
<path d="M112.27 35.4485V35.8059C112.27 36.9618 111.859 37.9369 111.037 38.7311C110.216 39.5165 109.133 39.9091 107.79 39.9091C106.377 39.9091 105.21 39.4503 104.292 38.5326C103.373 37.606 102.913 36.4721 102.913 35.1308C102.913 33.7895 103.368 32.66 104.278 31.7423C105.188 30.8158 106.341 30.3525 107.737 30.3525C108.586 30.3525 109.363 30.5555 110.07 30.9614C110.786 31.3673 111.338 31.91 111.726 32.5894L111.104 32.9601C110.794 32.3777 110.335 31.91 109.725 31.557C109.124 31.204 108.462 31.0275 107.737 31.0275C106.536 31.0275 105.546 31.4246 104.769 32.2188C104 33.0042 103.616 33.9748 103.616 35.1308C103.616 36.2868 104.004 37.2619 104.782 38.0561C105.559 38.8414 106.562 39.2341 107.79 39.2341C108.877 39.2341 109.756 38.9385 110.428 38.3473C111.099 37.756 111.475 37.0104 111.554 36.1103H107.618V35.4485H112.27Z" fill="white"/>
<path d="M114.733 39.1017H119.106V39.7635H114.03V30.4981H114.733V39.1017Z" fill="white"/>
<path d="M121.268 39.1017H125.907V39.7635H120.566V30.4981H125.841V31.1599H121.268V34.7602H125.509V35.422H121.268V39.1017Z" fill="white"/>
<path d="M134.32 30.4981C135.15 30.4981 135.84 30.7716 136.387 31.3187C136.935 31.8659 137.209 32.5497 137.209 33.3704C137.209 34.191 136.935 34.8749 136.387 35.422C135.84 35.9603 135.15 36.2294 134.32 36.2294H131.868V39.7635H131.166V30.4981H134.32ZM134.32 35.5676C134.956 35.5676 135.477 35.3603 135.884 34.9455C136.299 34.5308 136.507 34.0057 136.507 33.3704C136.507 32.7262 136.299 32.1968 135.884 31.782C135.477 31.3673 134.956 31.1599 134.32 31.1599H131.868V35.5676H134.32Z" fill="white"/>
<path d="M139.646 39.1017H144.02V39.7635H138.944V30.4981H139.646V39.1017Z" fill="white"/>
<path d="M151.981 39.7635L151.08 37.4075H146.428L145.527 39.7635H144.784L148.389 30.4981H149.131L152.723 39.7635H151.981ZM146.693 36.7457H150.828L148.76 31.3585L146.693 36.7457Z" fill="white"/>
<path d="M159.324 30.4981L155.944 35.9515V39.7635H155.242V35.9515L151.862 30.4981H152.657L155.6 35.2764L158.528 30.4981H159.324Z" fill="white"/>
<defs>
<clipPath id="clip0_215_3450">
<rect width="33.1321" height="33.0909" fill="white" transform="translate(28.6484 11.6367)"/>
</clipPath>
</defs>
</svg>
