<svg width="11" height="14" viewBox="0 0 11 14" fill="none" xmlns="http://www.w3.org/2000/svg">
<path fill-rule="evenodd" clip-rule="evenodd" d="M5.5 14C5.5 14 11 10.2308 11 5.38462C11 3.95653 10.4205 2.58693 9.38909 1.57712C8.35764 0.567306 6.95869 0 5.5 0C4.04131 0 2.64236 0.567306 1.61091 1.57712C0.579463 2.58693 0 3.95653 0 5.38462C0 10.2308 5.5 14 5.5 14ZM8.00022 5.50022C8.00022 6.88093 6.88093 8.00022 5.50022 8.00022C4.11951 8.00022 3.00022 6.88093 3.00022 5.50022C3.00022 4.1195 4.11951 3.00022 5.50022 3.00022C6.88093 3.00022 8.00022 4.1195 8.00022 5.50022Z" fill="#828282"/>
</svg>
