<svg width="17" height="17" viewBox="0 0 17 17" fill="none" xmlns="http://www.w3.org/2000/svg">
<path d="M16.473 1.16243L9.59799 16.1624C9.54046 16.2881 9.44291 16.3911 9.3206 16.4554C9.19829 16.5198 9.05811 16.5417 8.92199 16.5179C8.78586 16.4941 8.66147 16.4258 8.56827 16.3238C8.47507 16.2218 8.41831 16.0917 8.40687 15.954L7.82561 8.98106L0.852677 8.39981C0.71496 8.38836 0.584918 8.3316 0.482888 8.2384C0.380858 8.1452 0.312595 8.02081 0.288775 7.88468C0.264954 7.74856 0.28692 7.60838 0.351236 7.48607C0.415552 7.36376 0.518591 7.26621 0.64424 7.20868L15.6442 0.33368C15.7602 0.280537 15.8896 0.264148 16.0152 0.286713C16.1407 0.309278 16.2564 0.369717 16.3466 0.459914C16.4368 0.550111 16.4972 0.665746 16.5198 0.791292C16.5423 0.916838 16.5259 1.04628 16.4728 1.16224L16.473 1.16243Z" fill="#080809"/>
</svg>
