<svg width="43" height="43" viewBox="0 0 43 43" fill="none" xmlns="http://www.w3.org/2000/svg">
<path fill-rule="evenodd" clip-rule="evenodd" d="M30.7797 7.90092C30.7797 5.51801 32.7147 3.58301 35.0976 3.58301C37.4805 3.58301 39.4155 5.51801 39.4155 7.90092C39.4155 10.2838 37.4805 12.2188 35.0976 12.2188C32.7147 12.2188 30.7797 10.2838 30.7797 7.90092ZM23.8816 26.4434L29.0595 19.7623L28.9879 19.7981C29.2745 19.404 29.3283 18.9023 29.1312 18.4544C28.9359 18.0065 28.5041 17.7019 28.0401 17.666C27.5545 17.6123 27.0726 17.8273 26.7841 18.2215L22.4501 23.8294L17.4854 19.9235C17.1808 19.6906 16.8224 19.5993 16.4641 19.6369C16.1076 19.6906 15.7851 19.8859 15.5683 20.1726L10.2667 27.0723L10.1574 27.2335C9.85287 27.8051 9.9962 28.5397 10.5337 28.9356C10.7845 29.0969 11.0533 29.2044 11.3579 29.2044C11.7717 29.2223 12.1641 29.0055 12.4149 28.6669L16.912 22.878L22.0183 26.714L22.1795 26.8197C22.7529 27.1243 23.4695 26.9827 23.8816 26.4434ZM27.6799 6.77271C27.6083 7.22063 27.5724 7.66855 27.5724 8.11646C27.5724 12.1477 30.8333 15.4068 34.8466 15.4068C35.2945 15.4068 35.7245 15.3548 36.1725 15.2831V29.7401C36.1725 35.8156 32.5891 39.4169 26.4974 39.4169H13.2588C7.16536 39.4169 3.58203 35.8156 3.58203 29.7401V16.4835C3.58203 10.3919 7.16536 6.77271 13.2588 6.77271H27.6799Z" fill="#1385CC"/>
<rect x="9.67578" y="17.2002" width="21.5" height="15.05" fill="#1385CC"/>
<path d="M25.8008 26.2345C25.8008 26.9586 25.6126 27.6408 25.2361 28.2813C24.8736 28.9079 24.3298 29.43 23.6048 29.8478C22.8937 30.2515 22.0501 30.4882 21.0741 30.5579V32.2496H19.7356V30.537C18.3413 30.4117 17.2189 29.994 16.3684 29.2838C15.5179 28.5598 15.0787 27.5851 15.0508 26.3598H18.1879C18.2716 27.3624 18.7875 27.968 19.7356 28.1769V24.1877C18.7317 23.9371 17.923 23.6865 17.3095 23.4358C16.696 23.1852 16.1662 22.7814 15.72 22.2245C15.2739 21.6675 15.0508 20.9087 15.0508 19.9479C15.0508 18.7366 15.483 17.748 16.3475 16.9822C17.2259 16.2163 18.3553 15.7777 19.7356 15.6664V13.9746H21.0741V15.6664C22.4126 15.7777 23.4793 16.1815 24.274 16.8777C25.0827 17.5739 25.5359 18.5347 25.6335 19.76H22.4754C22.4336 19.3562 22.2872 19.0081 22.0362 18.7157C21.7992 18.4093 21.4785 18.1935 21.0741 18.0682V22.0156C22.1198 22.2802 22.9425 22.5378 23.542 22.7884C24.1555 23.0251 24.6853 23.4219 25.1315 23.9789C25.5777 24.5219 25.8008 25.2738 25.8008 26.2345ZM18.1043 19.8017C18.1043 20.2612 18.2437 20.6372 18.5226 20.9296C18.8014 21.208 19.2058 21.4378 19.7356 21.6188V18.0056C19.2337 18.0752 18.8363 18.2631 18.5435 18.5695C18.2507 18.8758 18.1043 19.2865 18.1043 19.8017ZM21.0741 28.2187C21.604 28.1212 22.0153 27.9054 22.3081 27.5712C22.6148 27.237 22.7682 26.8332 22.7682 26.3598C22.7682 25.9004 22.6218 25.5314 22.329 25.2529C22.0362 24.9744 21.6179 24.7447 21.0741 24.5637V28.2187Z" fill="white"/>
</svg>
