<svg width="166" height="58" viewBox="0 0 166 58" fill="none" xmlns="http://www.w3.org/2000/svg">
<rect x="0.339844" y="0.0546875" width="165.66" height="57.9091" rx="17.5" fill="#080809"/>
<path d="M36.4355 39.7634C32.4906 39.7407 29.2275 31.698 29.2275 27.602C29.2275 20.9112 34.253 19.4464 36.1898 19.4464C37.0626 19.4464 37.9946 19.7888 38.8166 20.0917C39.3915 20.303 39.986 20.5212 40.3166 20.5212C40.5146 20.5212 40.9809 20.3356 41.3927 20.1728C42.2709 19.8236 43.3636 19.3896 44.6361 19.3896C44.6384 19.3896 44.6414 19.3896 44.6436 19.3896C45.5938 19.3896 48.4747 19.5979 50.2068 22.1958L50.6125 22.8047L50.0286 23.2447C49.1944 23.8734 47.6724 25.0201 47.6724 27.2915C47.6724 29.9817 49.3961 31.0163 50.2242 31.514C50.5898 31.7336 50.9681 31.9601 50.9681 32.4554C50.9681 32.7788 48.3837 39.7233 44.6307 39.7233C43.7124 39.7233 43.0633 39.4476 42.4907 39.2045C41.9114 38.9583 41.4116 38.7463 40.5858 38.7463C40.1672 38.7463 39.6378 38.9439 39.0774 39.1538C38.3116 39.4392 37.4448 39.7634 36.4613 39.7634H36.4355Z" fill="white"/>
<path d="M45.0333 13.291C45.131 16.8109 42.6107 19.2528 40.0932 19.0996C39.6784 16.2907 42.6104 13.291 45.0333 13.291Z" fill="white"/>
<path d="M64.9961 21.5633H66.7355L64.3699 14.6142H62.3422L59.9766 21.5633H61.716L62.0639 20.4713H64.6482L64.9961 21.5633ZM62.541 18.9822L63.356 16.4309L64.1711 18.9822H62.541Z" fill="white"/>
<path d="M70.2557 16.5997L69.222 19.7466L68.1882 16.5997H66.5383L68.3771 21.5633H70.0668L71.9057 16.5997H70.2557Z" fill="white"/>
<path d="M75.8667 16.5997V17.0663C75.5387 16.689 75.0516 16.4607 74.3857 16.4607C73.0836 16.4607 72.0101 17.6023 72.0101 19.0815C72.0101 20.5607 73.0836 21.7023 74.3857 21.7023C75.0516 21.7023 75.5387 21.474 75.8667 21.0967V21.5633H77.3576V16.5997H75.8667ZM74.6839 20.2926C73.998 20.2926 73.501 19.826 73.501 19.0815C73.501 18.337 73.998 17.8704 74.6839 17.8704C75.3697 17.8704 75.8667 18.337 75.8667 19.0815C75.8667 19.826 75.3697 20.2926 74.6839 20.2926Z" fill="white"/>
<path d="M78.4514 21.5633H79.9424V14.3164H78.4514V21.5633Z" fill="white"/>
<path d="M81.7789 16.1629C82.2659 16.1629 82.6735 15.7559 82.6735 15.2694C82.6735 14.783 82.2659 14.376 81.7789 14.376C81.2919 14.376 80.8843 14.783 80.8843 15.2694C80.8843 15.7559 81.2919 16.1629 81.7789 16.1629ZM81.0334 21.5633H82.5244V16.5997H81.0334V21.5633Z" fill="white"/>
<path d="M86.5873 16.4607C85.9214 16.4607 85.4343 16.689 85.1063 17.0663V14.6142H83.6154V21.5633H85.1063V21.0967C85.4343 21.474 85.9214 21.7023 86.5873 21.7023C87.8894 21.7023 88.9629 20.5607 88.9629 19.0815C88.9629 17.6023 87.8894 16.4607 86.5873 16.4607ZM86.2892 20.2926C85.6033 20.2926 85.1063 19.826 85.1063 19.0815C85.1063 18.337 85.6033 17.8704 86.2892 17.8704C86.975 17.8704 87.472 18.337 87.472 19.0815C87.472 19.826 86.975 20.2926 86.2892 20.2926Z" fill="white"/>
<path d="M89.8082 21.5633H91.2992V14.3164H89.8082V21.5633Z" fill="white"/>
<path d="M93.7221 19.6771H97.2507C97.2905 19.4885 97.3103 19.29 97.3103 19.0815C97.3103 17.5825 96.2369 16.4607 94.7857 16.4607C93.2152 16.4607 92.1417 17.6023 92.1417 19.0815C92.1417 20.5607 93.1953 21.7023 94.895 21.7023C95.8393 21.7023 96.5748 21.3548 97.0618 20.6798L95.8691 19.9948C95.6703 20.2132 95.3224 20.372 94.9149 20.372C94.3682 20.372 93.911 20.1934 93.7221 19.6771ZM93.6923 18.5653C93.8315 18.059 94.2092 17.781 94.7757 17.781C95.223 17.781 95.6703 17.9895 95.8293 18.5653H93.6923Z" fill="white"/>
<path d="M103.026 21.7023C104.488 21.7023 105.66 20.5607 105.66 19.0815C105.66 17.6023 104.488 16.4607 103.026 16.4607C101.565 16.4607 100.392 17.6023 100.392 19.0815C100.392 20.5607 101.565 21.7023 103.026 21.7023ZM103.026 20.2529C102.38 20.2529 101.883 19.7863 101.883 19.0815C101.883 18.3767 102.38 17.9101 103.026 17.9101C103.672 17.9101 104.169 18.3767 104.169 19.0815C104.169 19.7863 103.672 20.2529 103.026 20.2529Z" fill="white"/>
<path d="M109.416 16.4607C108.76 16.4607 108.263 16.699 107.995 17.0663V16.5997H106.504V21.5633H107.995V18.8532C107.995 18.1483 108.372 17.8307 108.919 17.8307C109.396 17.8307 109.784 18.1186 109.784 18.734V21.5633H111.275V18.5156C111.275 17.1755 110.42 16.4607 109.416 16.4607Z" fill="white"/>
<path d="M117.696 18.0292V16.5997H116.672V15.2099L115.181 15.6566V16.5997H114.386V18.0292H115.181V19.7863C115.181 21.1762 115.748 21.7619 117.696 21.5633V20.2132C117.04 20.2529 116.672 20.2132 116.672 19.7863V18.0292H117.696Z" fill="white"/>
<path d="M121.452 16.4607C120.796 16.4607 120.299 16.699 120.031 17.0663V14.6142H118.54V21.5633H120.031V18.8532C120.031 18.1483 120.409 17.8307 120.955 17.8307C121.432 17.8307 121.82 18.1186 121.82 18.734V21.5633H123.311V18.5156C123.311 17.1755 122.456 16.4607 121.452 16.4607Z" fill="white"/>
<path d="M125.667 19.6771H129.195C129.235 19.4885 129.255 19.29 129.255 19.0815C129.255 17.5825 128.181 16.4607 126.73 16.4607C125.16 16.4607 124.086 17.6023 124.086 19.0815C124.086 20.5607 125.14 21.7023 126.84 21.7023C127.784 21.7023 128.519 21.3548 129.006 20.6798L127.814 19.9948C127.615 20.2132 127.267 20.372 126.86 20.372C126.313 20.372 125.856 20.1934 125.667 19.6771ZM125.637 18.5653C125.776 18.059 126.154 17.781 126.72 17.781C127.168 17.781 127.615 17.9895 127.774 18.5653H125.637Z" fill="white"/>
<path d="M68.3424 39.7633H71.2415L67.2988 28.1815H63.9193L59.9766 39.7633H62.8756L63.4554 37.9433H67.7626L68.3424 39.7633ZM64.2506 35.4615L65.609 31.2093L66.9674 35.4615H64.2506Z" fill="white"/>
<path d="M77.1007 31.259C75.9907 31.259 75.179 31.6395 74.6323 32.2682V31.4906H72.1474V43.0724H74.6323V38.9857C75.179 39.6144 75.9907 39.995 77.1007 39.995C79.2708 39.995 81.06 38.0922 81.06 35.627C81.06 33.1617 79.2708 31.259 77.1007 31.259ZM76.6037 37.6455C75.4606 37.6455 74.6323 36.8679 74.6323 35.627C74.6323 34.386 75.4606 33.6084 76.6037 33.6084C77.7467 33.6084 78.575 34.386 78.575 35.627C78.575 36.8679 77.7467 37.6455 76.6037 37.6455Z" fill="white"/>
<path d="M87.4221 31.259C86.3122 31.259 85.5004 31.6395 84.9537 32.2682V31.4906H82.4688V43.0724H84.9537V38.9857C85.5004 39.6144 86.3122 39.995 87.4221 39.995C89.5922 39.995 91.3814 38.0922 91.3814 35.627C91.3814 33.1617 89.5922 31.259 87.4221 31.259ZM86.9251 37.6455C85.782 37.6455 84.9537 36.8679 84.9537 35.627C84.9537 34.386 85.782 33.6084 86.9251 33.6084C88.0682 33.6084 88.8965 34.386 88.8965 35.627C88.8965 36.8679 88.0682 37.6455 86.9251 37.6455Z" fill="white"/>
<path d="M92.7903 39.7633H95.2752V27.6851H92.7903V39.7633Z" fill="white"/>
<path d="M99.3134 36.6197H105.194C105.261 36.3053 105.294 35.9744 105.294 35.627C105.294 33.1286 103.505 31.259 101.086 31.259C98.4685 31.259 96.6794 33.1617 96.6794 35.627C96.6794 38.0922 98.4354 39.995 101.268 39.995C102.842 39.995 104.068 39.4159 104.88 38.2908L102.892 37.1491C102.56 37.5131 101.981 37.7779 101.301 37.7779C100.39 37.7779 99.6282 37.48 99.3134 36.6197ZM99.2637 34.7666C99.4956 33.9228 100.125 33.4595 101.069 33.4595C101.815 33.4595 102.56 33.807 102.825 34.7666H99.2637Z" fill="white"/>
<path d="M114.986 39.995C117.504 39.995 119.293 38.6713 119.293 36.4377C119.293 33.989 117.322 33.3768 115.566 32.8473C113.76 32.3013 113.479 31.9373 113.479 31.4079C113.479 30.9446 113.893 30.531 114.721 30.531C115.781 30.531 116.328 31.0439 116.726 31.8711L118.962 30.564C118.117 28.8599 116.626 27.9499 114.721 27.9499C112.717 27.9499 110.828 29.2404 110.828 31.474C110.828 33.6911 112.518 34.5184 114.241 34.9982C115.98 35.478 116.643 35.7593 116.643 36.4708C116.643 36.9175 116.328 37.4139 115.069 37.4139C113.76 37.4139 113.048 36.7686 112.634 35.809L110.348 37.1326C110.994 38.8368 112.551 39.995 114.986 39.995Z" fill="white"/>
<path d="M125.146 33.8731V31.4906H123.44V29.1742L120.955 29.9188V31.4906H119.63V33.8731H120.955V36.8017C120.955 39.118 121.899 40.0942 125.146 39.7633V37.5131C124.053 37.5793 123.44 37.5131 123.44 36.8017V33.8731H125.146Z" fill="white"/>
<path d="M130.367 39.995C132.803 39.995 134.757 38.0922 134.757 35.627C134.757 33.1617 132.803 31.259 130.367 31.259C127.932 31.259 125.977 33.1617 125.977 35.627C125.977 38.0922 127.932 39.995 130.367 39.995ZM130.367 37.5793C129.291 37.5793 128.462 36.8017 128.462 35.627C128.462 34.4522 129.291 33.6746 130.367 33.6746C131.444 33.6746 132.272 34.4522 132.272 35.627C132.272 36.8017 131.444 37.5793 130.367 37.5793Z" fill="white"/>
<path d="M138.648 32.9631V31.4906H136.163V39.7633H138.648V36.024C138.648 34.386 140.106 33.9724 141.133 34.1379V31.3251C140.089 31.3251 138.979 31.8546 138.648 32.9631Z" fill="white"/>
<path d="M144.271 36.6197H150.152C150.219 36.3053 150.252 35.9744 150.252 35.627C150.252 33.1286 148.463 31.259 146.044 31.259C143.427 31.259 141.637 33.1617 141.637 35.627C141.637 38.0922 143.393 39.995 146.226 39.995C147.8 39.995 149.026 39.4159 149.838 38.2908L147.85 37.1491C147.518 37.5131 146.939 37.7779 146.259 37.7779C145.348 37.7779 144.586 37.48 144.271 36.6197ZM144.222 34.7666C144.454 33.9228 145.083 33.4595 146.027 33.4595C146.773 33.4595 147.518 33.807 147.783 34.7666H144.222Z" fill="white"/>
</svg>
