<svg width="42" height="35" viewBox="0 0 42 35" fill="none" xmlns="http://www.w3.org/2000/svg">
<g clip-path="url(#clip0_268_2423)">
<path fill-rule="evenodd" clip-rule="evenodd" d="M27.1457 13.7217C27.1457 17.6379 23.9987 20.778 20.0741 20.778C16.1494 20.778 13.0025 17.6379 13.0025 13.7217C13.0025 9.80411 16.1494 6.66699 20.0741 6.66699C23.9987 6.66699 27.1457 9.80411 27.1457 13.7217ZM20.0741 33.3337C14.3097 33.3337 9.38768 32.427 9.38768 28.8006C9.38768 25.1727 14.2781 24.233 20.0741 24.233C25.8384 24.233 30.7604 25.1396 30.7604 28.7676C30.7604 32.394 25.87 33.3337 20.0741 33.3337ZM30.1676 13.849C30.1676 15.8454 29.5674 17.7051 28.5144 19.2512C28.4061 19.4103 28.5024 19.6249 28.6934 19.6579C28.9567 19.703 29.2289 19.7285 29.5057 19.736C32.2661 19.808 34.7436 18.0354 35.4281 15.3666C36.4419 11.4024 33.465 7.84348 29.6742 7.84348C29.262 7.84348 28.8679 7.88701 28.4843 7.96507C28.4317 7.97707 28.376 8.00109 28.3459 8.04762C28.3098 8.10466 28.3369 8.18121 28.373 8.23074C29.5117 9.82332 30.1676 11.7656 30.1676 13.849ZM34.7391 22.5213C36.5939 22.883 37.8138 23.6215 38.3193 24.6947C38.7465 25.5758 38.7465 26.598 38.3193 27.4776C37.5461 29.1422 35.0535 29.6766 34.0847 29.8147C33.8847 29.8447 33.7237 29.6721 33.7448 29.4725C34.2397 24.8598 30.303 22.6729 29.2846 22.17C29.241 22.1475 29.2319 22.113 29.2365 22.092C29.2395 22.077 29.2575 22.053 29.2906 22.0485C31.4944 22.0079 33.8636 22.3081 34.7391 22.5213ZM10.814 19.7358C11.0908 19.7283 11.3616 19.7043 11.6263 19.6578C11.8174 19.6248 11.9137 19.4101 11.8053 19.251C10.7524 17.705 10.1521 15.8452 10.1521 13.8489C10.1521 11.7655 10.808 9.82317 11.9468 8.2306C11.9829 8.18106 12.0084 8.10451 11.9738 8.04747C11.9437 8.00244 11.8866 7.97693 11.8354 7.96492C11.4503 7.88686 11.0562 7.84334 10.644 7.84334C6.85327 7.84334 3.87631 11.4022 4.89169 15.3664C5.57614 18.0352 8.05368 19.8079 10.814 19.7358ZM11.0825 22.0911C11.0871 22.1136 11.078 22.1466 11.0359 22.1706C10.016 22.6735 6.07932 24.8605 6.57423 29.4716C6.59529 29.6727 6.43583 29.8438 6.23576 29.8153C5.26701 29.6772 2.77442 29.1428 2.00123 27.4782C1.57251 26.5971 1.57251 25.5764 2.00123 24.6953C2.50666 23.6221 3.72513 22.8836 5.5799 22.5204C6.45689 22.3087 8.82462 22.0085 11.0299 22.0491C11.063 22.0536 11.0795 22.0776 11.0825 22.0911Z" fill="#1385CC"/>
</g>
<defs>
<clipPath id="clip0_268_2423">
<rect width="42" height="35" fill="white"/>
</clipPath>
</defs>
</svg>
