<svg width="12" height="13" viewBox="0 0 12 13" fill="none" xmlns="http://www.w3.org/2000/svg">
<path fill-rule="evenodd" clip-rule="evenodd" d="M6 12.2217C9.31371 12.2217 12 9.53539 12 6.22168C12 2.90797 9.31371 0.22168 6 0.22168C2.68629 0.22168 0 2.90797 0 6.22168C0 9.53539 2.68629 12.2217 6 12.2217ZM5.487 7.86568C5.523 7.90168 5.565 7.91968 5.613 7.91968H6.495C6.609 7.91968 6.69 7.84468 6.738 7.69468C6.744 7.64068 6.759 7.53868 6.783 7.38868C6.819 7.22068 6.888 7.06468 6.99 6.92068C7.098 6.77068 7.248 6.59068 7.44 6.38068C7.71 6.09268 7.911 5.84068 8.043 5.62468C8.181 5.40268 8.25 5.13868 8.25 4.83268C8.25 4.56868 8.175 4.31368 8.025 4.06768C7.881 3.82168 7.647 3.62068 7.323 3.46468C7.005 3.30268 6.597 3.22168 6.099 3.22168C5.625 3.22168 5.211 3.31168 4.857 3.49168C4.503 3.66568 4.233 3.89668 4.047 4.18468C3.861 4.47268 3.762 4.78168 3.75 5.11168C3.75 5.17768 3.768 5.23168 3.804 5.27368C3.84 5.30968 3.888 5.32768 3.948 5.32768H4.713C4.845 5.32768 4.932 5.25868 4.974 5.12068C5.094 4.53868 5.448 4.24768 6.036 4.24768C6.3 4.24768 6.525 4.32268 6.711 4.47268C6.897 4.61668 6.978 4.81168 6.954 5.05768C6.936 5.20168 6.876 5.34268 6.774 5.48068C6.672 5.61868 6.522 5.78368 6.324 5.97568C6.054 6.25168 5.844 6.49768 5.694 6.71368C5.55 6.92368 5.463 7.16968 5.433 7.45168V7.73968C5.433 7.78768 5.451 7.82968 5.487 7.86568ZM5.433 9.54868C5.475 9.59068 5.526 9.61168 5.586 9.61168H6.459C6.525 9.61168 6.579 9.59068 6.621 9.54868C6.663 9.50668 6.684 9.45568 6.684 9.39568V8.61268C6.684 8.54668 6.663 8.49268 6.621 8.45068C6.579 8.40868 6.525 8.38768 6.459 8.38768H5.586C5.526 8.38768 5.475 8.41168 5.433 8.45968C5.391 8.50168 5.37 8.55268 5.37 8.61268V9.39568C5.37 9.45568 5.391 9.50668 5.433 9.54868Z" fill="#BDBDBD"/>
</svg>
