<svg width="15" height="16" viewBox="0 0 15 16" fill="none" xmlns="http://www.w3.org/2000/svg">
<path fill-rule="evenodd" clip-rule="evenodd" d="M7.5 15.5C11.6421 15.5 15 12.1421 15 8C15 3.85786 11.6421 0.5 7.5 0.5C3.35786 0.5 0 3.85786 0 8C0 12.1421 3.35786 15.5 7.5 15.5ZM6.85875 10.055C6.90375 10.1 6.95625 10.1225 7.01625 10.1225H8.11875C8.26125 10.1225 8.3625 10.0288 8.4225 9.84125C8.43 9.77375 8.44875 9.64625 8.47875 9.45875C8.52375 9.24875 8.61 9.05375 8.7375 8.87375C8.8725 8.68625 9.06 8.46125 9.3 8.19875C9.6375 7.83875 9.88875 7.52375 10.0538 7.25375C10.2262 6.97625 10.3125 6.64625 10.3125 6.26375C10.3125 5.93375 10.2188 5.615 10.0312 5.3075C9.85125 5 9.55875 4.74875 9.15375 4.55375C8.75625 4.35125 8.24625 4.25 7.62375 4.25C7.03125 4.25 6.51375 4.3625 6.07125 4.5875C5.62875 4.805 5.29125 5.09375 5.05875 5.45375C4.82625 5.81375 4.7025 6.2 4.6875 6.6125C4.6875 6.695 4.71 6.7625 4.755 6.815C4.8 6.86 4.86 6.8825 4.935 6.8825H5.89125C6.05625 6.8825 6.165 6.79625 6.2175 6.62375C6.3675 5.89625 6.81 5.5325 7.545 5.5325C7.875 5.5325 8.15625 5.62625 8.38875 5.81375C8.62125 5.99375 8.7225 6.2375 8.6925 6.545C8.67 6.725 8.595 6.90125 8.4675 7.07375C8.34 7.24625 8.1525 7.4525 7.905 7.6925C7.5675 8.0375 7.305 8.345 7.1175 8.615C6.9375 8.8775 6.82875 9.185 6.79125 9.5375V9.8975C6.79125 9.9575 6.81375 10.01 6.85875 10.055ZM6.79125 12.1588C6.84375 12.2113 6.9075 12.2375 6.9825 12.2375H8.07375C8.15625 12.2375 8.22375 12.2113 8.27625 12.1588C8.32875 12.1063 8.355 12.0425 8.355 11.9675V10.9888C8.355 10.9062 8.32875 10.8387 8.27625 10.7863C8.22375 10.7338 8.15625 10.7075 8.07375 10.7075H6.9825C6.9075 10.7075 6.84375 10.7375 6.79125 10.7975C6.73875 10.85 6.7125 10.9138 6.7125 10.9888V11.9675C6.7125 12.0425 6.73875 12.1063 6.79125 12.1588Z" fill="#009DFF"/>
</svg>
