<svg width="14" height="13" viewBox="0 0 14 13" fill="none" xmlns="http://www.w3.org/2000/svg">
<path d="M6.11645 10.8408C9.08955 10.8408 11.4997 8.60224 11.4997 5.84082C11.4997 3.0794 9.08955 0.84082 6.11645 0.84082C3.14334 0.84082 0.733154 3.0794 0.733154 5.84082C0.733154 8.60224 3.14334 10.8408 6.11645 10.8408Z" stroke="#77828D"/>
<path d="M8.83899 9.64059L11.8644 12.6706C11.9319 12.7378 12.0136 12.7914 12.1043 12.8281C12.1951 12.8647 12.293 12.8836 12.392 12.8836C12.4909 12.8836 12.5888 12.8647 12.6796 12.8281C12.7704 12.7914 12.852 12.7378 12.9195 12.6706C13.0618 12.5297 13.141 12.3438 13.141 12.1506C13.141 11.9574 13.0618 11.7715 12.9195 11.6306L9.89411 8.60059L8.83899 9.64059Z" fill="#77828D"/>
</svg>
