<svg width="81" height="80" viewBox="0 0 81 80" fill="none" xmlns="http://www.w3.org/2000/svg">
<circle cx="40.1938" cy="40" r="40" fill="url(#paint0_linear_35_1010)"/>
<path fill-rule="evenodd" clip-rule="evenodd" d="M53.8109 30.6381C53.8109 28.758 52.2868 27.2339 50.4067 27.2339H29.9812C28.101 27.2339 26.5769 28.758 26.5769 30.6381V44.2552C26.5769 46.1353 28.101 47.6594 29.9812 47.6594H46.2974C46.7488 47.6594 47.1818 47.8388 47.501 48.158L52.3581 53.0151C52.8942 53.5512 53.8109 53.1715 53.8109 52.4133V30.6381ZM35.0875 37.4467C35.0875 38.3867 34.3255 39.1488 33.3854 39.1488C32.4454 39.1488 31.6833 38.3867 31.6833 37.4467C31.6833 36.5066 32.4454 35.7445 33.3854 35.7445C34.3255 35.7445 35.0875 36.5066 35.0875 37.4467ZM41.8961 37.4467C41.8961 38.3867 41.134 39.1488 40.1939 39.1488C39.2539 39.1488 38.4918 38.3867 38.4918 37.4467C38.4918 36.5066 39.2539 35.7445 40.1939 35.7445C41.134 35.7445 41.8961 36.5066 41.8961 37.4467ZM47.0024 39.1488C47.9425 39.1488 48.7046 38.3867 48.7046 37.4467C48.7046 36.5066 47.9425 35.7445 47.0024 35.7445C46.0624 35.7445 45.3003 36.5066 45.3003 37.4467C45.3003 38.3867 46.0624 39.1488 47.0024 39.1488Z" fill="white"/>
<defs>
<linearGradient id="paint0_linear_35_1010" x1="80.1938" y1="0" x2="0.193848" y2="80" gradientUnits="userSpaceOnUse">
<stop stop-color="#D665FF"/>
<stop offset="1" stop-color="#4C6FFF"/>
</linearGradient>
</defs>
</svg>
