<svg width="32" height="30" viewBox="0 0 32 30" fill="none" xmlns="http://www.w3.org/2000/svg">
<path fill-rule="evenodd" clip-rule="evenodd" d="M8.96532 0H22.4905C27.7789 0 31.3201 3.5685 31.3201 8.8785V21.1335C31.3201 26.43 27.7789 30 22.4905 30H8.96532C3.67692 30 0.120117 26.43 0.120117 21.1335V8.8785C0.120117 3.5685 3.67692 0 8.96532 0ZM21.3049 20.715C21.6949 20.715 22.0849 20.52 22.3033 20.16C22.6465 19.6335 22.4593 18.9435 21.8977 18.615L16.3441 15.435V8.5035C16.3441 7.89 15.8293 7.3785 15.1741 7.3785C14.5345 7.3785 14.0041 7.89 14.0041 8.5035V16.08C14.0041 16.47 14.2225 16.845 14.5813 17.04L20.6965 20.55C20.8837 20.67 21.1021 20.715 21.3049 20.715Z" fill="#1385CC"/>
</svg>
