<svg width="89" height="88" viewBox="0 0 89 88" fill="none" xmlns="http://www.w3.org/2000/svg">
<g filter="url(#filter0_d_215_3432)">
<path fill-rule="evenodd" clip-rule="evenodd" d="M44.058 75.8911C62.8138 75.8911 78.0184 60.7054 78.0184 41.9729C78.0184 23.2404 62.8138 8.05469 44.058 8.05469C25.3022 8.05469 10.0977 23.2404 10.0977 41.9729C10.0977 60.7054 25.3022 75.8911 44.058 75.8911Z" fill="white"/>
</g>
<path d="M56.4822 33.7651C55.4965 34.1969 54.4463 34.4832 53.3512 34.6221C54.4777 33.9504 55.3375 32.8948 55.7417 31.6225C54.6914 32.2479 53.5318 32.6896 52.296 32.9362C51.2987 31.8756 49.8773 31.2188 48.3268 31.2188C45.3184 31.2188 42.8964 33.6576 42.8964 36.6473C42.8964 37.0775 42.9329 37.4911 43.0223 37.8849C38.5048 37.6649 34.5074 35.5024 31.822 32.2082C31.3532 33.0206 31.0782 33.9504 31.0782 34.9514C31.0782 36.831 32.0473 38.4971 33.4919 39.4617C32.6188 39.4451 31.7624 39.192 31.0368 38.7933C31.0368 38.8098 31.0368 38.8313 31.0368 38.8528C31.0368 41.4902 32.9203 43.6808 35.3903 44.1854C34.948 44.3062 34.466 44.3641 33.9657 44.3641C33.6178 44.3641 33.2666 44.3443 32.9369 44.2715C33.641 46.4207 35.6388 48.0008 38.0144 48.0521C36.1656 49.4965 33.8182 50.3668 31.277 50.3668C30.8314 50.3668 30.404 50.3469 29.9766 50.2923C32.3836 51.8427 35.2363 52.7278 38.3126 52.7278C48.3119 52.7278 53.7786 44.4551 53.7786 37.2843C53.7786 37.0444 53.7704 36.8128 53.7588 36.5828C54.8372 35.8184 55.7434 34.8637 56.4822 33.7651Z" fill="#080809"/>
<defs>
<filter id="filter0_d_215_3432" x="0.0976562" y="0.0546875" width="87.9209" height="87.8359" filterUnits="userSpaceOnUse" color-interpolation-filters="sRGB">
<feFlood flood-opacity="0" result="BackgroundImageFix"/>
<feColorMatrix in="SourceAlpha" type="matrix" values="0 0 0 0 0 0 0 0 0 0 0 0 0 0 0 0 0 0 127 0" result="hardAlpha"/>
<feOffset dy="2"/>
<feGaussianBlur stdDeviation="5"/>
<feColorMatrix type="matrix" values="0 0 0 0 0 0 0 0 0 0 0 0 0 0 0 0 0 0 0.1 0"/>
<feBlend mode="normal" in2="BackgroundImageFix" result="effect1_dropShadow_215_3432"/>
<feBlend mode="normal" in="SourceGraphic" in2="effect1_dropShadow_215_3432" result="shape"/>
</filter>
</defs>
</svg>
